<svg width="0" height="0" class="hidden">
  <symbol fill="none" xmlns="http://www.w3.org/2000/svg" viewBox="0 0 136 15" id="TravelTrucks">
    <path d="M135.393 7.18744H131.785C131.766 6.96491 131.688 6.77314 131.55 6.61216C131.413 6.45117 131.235 6.32807 131.018 6.24284C130.804 6.15288 130.568 6.1079 130.307 6.1079C129.971 6.1079 129.682 6.16945 129.441 6.29256C129.199 6.41566 129.081 6.59085 129.086 6.81813C129.081 6.97911 129.15 7.12826 129.292 7.26557C129.438 7.40288 129.72 7.50941 130.137 7.58517L132.353 7.9829C133.47 8.1865 134.301 8.52977 134.846 9.01273C135.395 9.49095 135.672 10.1325 135.677 10.9374C135.672 11.714 135.44 12.3887 134.981 12.9616C134.526 13.5298 133.903 13.9701 133.113 14.2826C132.327 14.5904 131.429 14.7443 130.421 14.7443C128.754 14.7443 127.45 14.4034 126.508 13.7215C125.57 13.0397 125.047 12.1401 124.938 11.0227H128.83C128.882 11.3683 129.053 11.6358 129.341 11.8252C129.635 12.0099 130.004 12.1022 130.449 12.1022C130.809 12.1022 131.105 12.0407 131.337 11.9176C131.574 11.7945 131.695 11.6193 131.699 11.392C131.695 11.1837 131.59 11.0179 131.387 10.8948C131.188 10.7717 130.875 10.6723 130.449 10.5965L128.518 10.2556C127.405 10.0615 126.572 9.69218 126.018 9.14767C125.464 8.60316 125.189 7.90241 125.194 7.0454C125.189 6.28782 125.388 5.64625 125.79 5.12068C126.197 4.59038 126.777 4.18792 127.53 3.9133C128.288 3.63394 129.185 3.49426 130.222 3.49426C131.799 3.49426 133.042 3.82097 133.951 4.47438C134.865 5.12778 135.345 6.03214 135.393 7.18744Z" fill="#475467"></path>
    <path d="M116.415 11.9602L116.443 7.30114H116.955L119.597 3.63636H124L119.568 9.34659H118.46L116.415 11.9602ZM112.892 14.5455V0H116.813V14.5455H112.892ZM119.625 14.5455L117.125 10.2273L119.682 7.44318L124.114 14.5455H119.625Z" fill="#475467"></path>
    <path d="M105.619 14.7443C104.435 14.7443 103.422 14.5099 102.579 14.0411C101.736 13.5677 101.09 12.9095 100.64 12.0667C100.19 11.2192 99.9654 10.2367 99.9654 9.11926C99.9654 8.00184 100.19 7.02172 100.64 6.17892C101.09 5.33138 101.736 4.67324 102.579 4.20449C103.422 3.731 104.435 3.49426 105.619 3.49426C106.689 3.49426 107.615 3.68839 108.396 4.07665C109.182 4.46017 109.79 5.00468 110.221 5.71017C110.652 6.41093 110.87 7.23479 110.875 8.18176H107.238C107.186 7.60885 107.02 7.17324 106.741 6.87494C106.466 6.57191 106.111 6.4204 105.676 6.4204C105.335 6.4204 105.036 6.51983 104.781 6.71869C104.525 6.91282 104.326 7.20875 104.184 7.60648C104.042 7.99947 103.971 8.49426 103.971 9.09085C103.971 9.68744 104.042 10.1846 104.184 10.5823C104.326 10.9753 104.525 11.2713 104.781 11.4701C105.036 11.6642 105.335 11.7613 105.676 11.7613C105.964 11.7613 106.22 11.695 106.443 11.5624C106.665 11.4251 106.845 11.2263 106.982 10.9659C107.125 10.7007 107.21 10.3787 107.238 9.99994H110.875C110.86 10.9611 110.64 11.7992 110.214 12.5141C109.788 13.2244 109.184 13.7736 108.403 14.1619C107.626 14.5501 106.698 14.7443 105.619 14.7443Z" fill="#475467"></path>
    <path d="M94.0487 9.77272V3.63635H97.9692V14.5454H94.2476V12.4716H94.1339C93.8972 13.1676 93.4829 13.7121 92.8911 14.1051C92.2992 14.4934 91.5961 14.6875 90.7817 14.6875C90.0194 14.6875 89.3517 14.5123 88.7788 14.1619C88.2106 13.8115 87.7679 13.3286 87.4507 12.7131C87.1382 12.0975 86.9796 11.392 86.9749 10.5966V3.63635H90.8953V9.77272C90.9 10.3125 91.0374 10.7363 91.3072 11.044C91.5819 11.3518 91.9654 11.5057 92.4578 11.5057C92.7845 11.5057 93.0662 11.437 93.303 11.2997C93.5445 11.1577 93.7291 10.9588 93.857 10.7031C93.9895 10.4427 94.0535 10.1326 94.0487 9.77272Z" fill="#475467"></path>
    <path d="M77.903 14.5454V3.63631H81.7098V5.71017H81.8234C82.0223 4.94313 82.3372 4.38205 82.768 4.02693C83.2036 3.67182 83.7126 3.49426 84.295 3.49426C84.4655 3.49426 84.6336 3.50847 84.7993 3.53688C84.9697 3.56055 85.1331 3.59606 85.2894 3.64341V6.98858C85.0952 6.92229 84.8561 6.87258 84.572 6.83943C84.2879 6.80629 84.0441 6.78972 83.8405 6.78972C83.457 6.78972 83.1113 6.87731 82.8036 7.0525C82.5005 7.22296 82.2614 7.46443 82.0862 7.77693C81.911 8.0847 81.8234 8.44691 81.8234 8.86358V14.5454H77.903Z" fill="#475467"></path>
    <path d="M64.4508 3.18182V0H77.0928V3.18182H72.7178V14.5455H68.8258V3.18182H64.4508Z" fill="#475467"></path>
    <path d="M62.5078 0V14.5455H58.5874V0H62.5078Z" fill="#101828"></path>
    <path d="M51.2467 14.7443C50.0819 14.7443 49.0781 14.5217 48.2353 14.0766C47.3972 13.6268 46.7509 12.9829 46.2964 12.1448C45.8466 11.302 45.6217 10.2935 45.6217 9.11926C45.6217 7.99237 45.8489 7.00752 46.3035 6.16472C46.758 5.32191 47.3996 4.66614 48.2282 4.19739C49.0568 3.72864 50.0346 3.49426 51.1614 3.49426C51.9853 3.49426 52.731 3.6221 53.3987 3.87778C54.0663 4.13347 54.6368 4.50515 55.1103 4.99284C55.5838 5.4758 55.9484 6.06292 56.2041 6.75421C56.4597 7.44549 56.5876 8.22438 56.5876 9.09085V9.99994H46.8433V7.84085H52.9796C52.9749 7.52835 52.8944 7.25373 52.7382 7.01699C52.5866 6.77551 52.3807 6.58849 52.1203 6.45591C51.8646 6.3186 51.5734 6.24994 51.2467 6.24994C50.9294 6.24994 50.6382 6.3186 50.3731 6.45591C50.1079 6.58849 49.8949 6.77314 49.7339 7.00989C49.5776 7.24663 49.4948 7.52362 49.4853 7.84085V10.1704C49.4853 10.5208 49.5587 10.8333 49.7055 11.1079C49.8523 11.3825 50.063 11.598 50.3376 11.7542C50.6122 11.9105 50.9436 11.9886 51.3319 11.9886C51.6018 11.9886 51.848 11.9507 52.0705 11.8749C52.2978 11.7992 52.4919 11.6903 52.6529 11.5482C52.8139 11.4015 52.9323 11.2263 53.008 11.0227H56.5876C56.4645 11.7802 56.1733 12.4384 55.714 12.9971C55.2547 13.5511 54.6463 13.982 53.8887 14.2897C53.1359 14.5927 52.2552 14.7443 51.2467 14.7443Z" fill="#101828"></path>
    <path d="M44.8364 3.63635L41.1716 14.5454H36.6261L32.9614 3.63635H37.0807L38.842 10.8523H38.9557L40.717 3.63635H44.8364Z" fill="#101828"></path>
    <path d="M25.056 14.7159C24.36 14.7159 23.7445 14.6022 23.2094 14.3749C22.6791 14.1429 22.2625 13.7926 21.9594 13.3238C21.6564 12.8551 21.5049 12.2585 21.5049 11.534C21.5049 10.9374 21.6067 10.4284 21.8103 10.007C22.0139 9.58091 22.298 9.2329 22.6626 8.96301C23.0271 8.69313 23.4509 8.48716 23.9339 8.34511C24.4216 8.20307 24.9471 8.11074 25.5106 8.06813C26.1214 8.02078 26.6114 7.96396 26.9807 7.89767C27.3548 7.82665 27.6247 7.72958 27.7904 7.60648C27.9561 7.47864 28.039 7.31055 28.039 7.10222V7.07381C28.039 6.78972 27.9301 6.57191 27.7123 6.4204C27.4945 6.26888 27.2151 6.19313 26.8742 6.19313C26.5001 6.19313 26.1948 6.27599 25.958 6.44171C25.726 6.60269 25.5863 6.85127 25.539 7.18744H21.931C21.9784 6.52456 22.1891 5.91377 22.5631 5.35506C22.9419 4.79161 23.4935 4.3418 24.218 4.00563C24.9424 3.66472 25.8467 3.49426 26.931 3.49426C27.7123 3.49426 28.413 3.58659 29.0333 3.77125C29.6536 3.95118 30.1815 4.20449 30.6171 4.53119C31.0527 4.85316 31.3841 5.23195 31.6114 5.66756C31.8434 6.09843 31.9594 6.56718 31.9594 7.07381V14.5454H28.2947V13.0113H28.2094C27.9916 13.4185 27.7265 13.7476 27.414 13.9985C27.1062 14.2495 26.7535 14.4318 26.3557 14.5454C25.9627 14.659 25.5295 14.7159 25.056 14.7159ZM26.3344 12.2443C26.6327 12.2443 26.9121 12.1827 27.1725 12.0596C27.4376 11.9365 27.6531 11.7589 27.8188 11.5269C27.9845 11.2949 28.0674 11.0132 28.0674 10.6818V9.77267C27.9632 9.81528 27.8519 9.85553 27.7336 9.89341C27.6199 9.93129 27.4968 9.9668 27.3643 9.99994C27.2364 10.0331 27.0991 10.0639 26.9523 10.0923C26.8103 10.1207 26.6611 10.1467 26.5049 10.1704C26.2019 10.2177 25.9533 10.2959 25.7591 10.4048C25.5697 10.5089 25.4277 10.6391 25.333 10.7954C25.243 10.9469 25.1981 11.1174 25.1981 11.3068C25.1981 11.6098 25.3046 11.8418 25.5177 12.0028C25.7307 12.1638 26.003 12.2443 26.3344 12.2443Z" fill="#101828"></path>
    <path d="M13.4522 14.5454V3.63631H17.259V5.71017H17.3727C17.5715 4.94313 17.8864 4.38205 18.3173 4.02693C18.7529 3.67182 19.2619 3.49426 19.8443 3.49426C20.0147 3.49426 20.1828 3.50847 20.3485 3.53688C20.519 3.56055 20.6823 3.59606 20.8386 3.64341V6.98858C20.6444 6.92229 20.4053 6.87258 20.1212 6.83943C19.8372 6.80629 19.5933 6.78972 19.3897 6.78972C19.0062 6.78972 18.6605 6.87731 18.3528 7.0525C18.0497 7.22296 17.8106 7.46443 17.6354 7.77693C17.4603 8.0847 17.3727 8.44691 17.3727 8.86358V14.5454H13.4522Z" fill="#101828"></path>
    <path d="M0 3.18182V0H12.642V3.18182H8.26705V14.5455H4.375V3.18182H0Z" fill="#101828"></path>
  </symbol>
  <symbol fill="none" xmlns="http://www.w3.org/2000/svg" viewBox="0 0 16 15" id="star">
    <path d="M6.20021 4.69703L8 1.28579L9.79979 4.69703C9.95896 4.9987 10.2491 5.20947 10.5851 5.26762L14.3856 5.92519L11.6975 8.69103C11.4598 8.93563 11.3489 9.27666 11.3975 9.61427L11.9465 13.4319L8.48537 11.7301C8.17929 11.5795 7.82071 11.5796 7.51463 11.7301L4.05348 13.4319L4.6025 9.61427C4.65105 9.27666 4.54024 8.93563 4.30252 8.69103L1.6144 5.92519L5.41486 5.26762C5.75095 5.20947 6.04104 4.9987 6.20021 4.69703ZM14.5177 5.78928L14.5175 5.78947L14.5177 5.78928ZM3.8834 13.5155C3.88344 13.5155 3.88349 13.5155 3.88353 13.5155L3.8834 13.5155Z" fill="#FFC531" stroke="#FFC531" stroke-width="1.2"></path>
  </symbol>
  <symbol fill="none" xmlns="http://www.w3.org/2000/svg" viewBox="0 0 24 21" id="heart">
    <path d="M12 7.854L10.659 5.1705C10.326 4.506 9.7485 3.5505 8.931 2.778C8.127 2.0175 7.164 1.5 6 1.5C3.486 1.5 1.5 3.489 1.5 5.88C1.5 7.6965 2.331 8.979 4.302 10.935C4.8075 11.436 5.3835 11.9775 6.021 12.5745C7.683 14.1345 9.75 16.0755 12 18.6705C14.25 16.0755 16.317 14.1345 17.979 12.5745C18.6165 11.9775 19.194 11.4345 19.698 10.935C21.669 8.979 22.5 7.6965 22.5 5.88C22.5 3.489 20.514 1.5 18 1.5C16.8345 1.5 15.873 2.0175 15.069 2.778C14.2515 3.5505 13.674 4.506 13.341 5.1705L12 7.854ZM12.588 20.292C12.5158 20.3776 12.4257 20.4463 12.3242 20.4935C12.2226 20.5407 12.112 20.5651 12 20.5651C11.888 20.5651 11.7774 20.5407 11.6758 20.4935C11.5743 20.4463 11.4842 20.3776 11.412 20.292C9.0105 17.439 6.837 15.399 5.0475 13.7205C1.95 10.812 0 8.9835 0 5.88C0 2.6325 2.685 0 6 0C8.4 0 10.0785 1.575 11.106 3.012C11.496 3.5595 11.793 4.086 12 4.5C12.2597 3.982 12.5586 3.48456 12.894 3.012C13.9215 1.5735 15.6 0 18 0C21.315 0 24 2.6325 24 5.88C24 8.9835 22.05 10.812 18.9525 13.7205C17.163 15.4005 14.9895 17.442 12.588 20.292Z" fill="#101828"></path>
  </symbol>
  <symbol fill="none" xmlns="http://www.w3.org/2000/svg" viewBox="0 0 32 32" id="water">
    <path d="M25 20C25 25.5231 21.5231 29 16 29C10.4769 29 7 25.5231 7 20C7 14.0731 13.4519 6.07187 15.4306 3.75749C15.501 3.67526 15.5884 3.60925 15.6867 3.56399C15.7851 3.51874 15.8921 3.4953 16.0003 3.4953C16.1086 3.4953 16.2155 3.51874 16.3139 3.56399C16.4122 3.60925 16.4996 3.67526 16.57 3.75749C18.5481 6.07187 25 14.0731 25 20Z" stroke="#101828" stroke-width="2" stroke-miterlimit="10"></path>
    <path d="M21.5 20.5C21.5 21.6935 21.0259 22.8381 20.182 23.682C19.3381 24.5259 18.1935 25 17 25" stroke="#101828" stroke-width="2" stroke-linecap="round" stroke-linejoin="round"></path>
  </symbol>
  <symbol fill="none" xmlns="http://www.w3.org/2000/svg" viewBox="0 0 32 32" id="gas">
    <path d="M8 25.3334H13.3333M24 25.3454V25.3334M2.66667 8.00002C2.66667 3.58669 3.58667 2.66669 8 2.66669H24C28.4133 2.66669 29.3333 3.58669 29.3333 8.00002V24C29.3333 28.4134 28.4133 29.3334 24 29.3334H8C3.58667 29.3334 2.66667 28.4134 2.66667 24V8.00002Z" stroke="#101828" stroke-width="2.4" stroke-linecap="round" stroke-linejoin="round"></path>
    <path d="M16 18.6667C18.9455 18.6667 21.3333 16.2789 21.3333 13.3333C21.3333 10.3878 18.9455 8 16 8C13.0545 8 10.6667 10.3878 10.6667 13.3333C10.6667 16.2789 13.0545 18.6667 16 18.6667Z" stroke="#101828" stroke-width="2.4" stroke-linecap="round" stroke-linejoin="round"></path>
    <path d="M20.6667 13.3334H22.6667M16 18V20M11.3333 13.3334H9.33333M16 8.66669V6.66669" stroke="#101828" stroke-width="2.4" stroke-linecap="round" stroke-linejoin="round"></path>
  </symbol>
  <symbol fill="none" xmlns="http://www.w3.org/2000/svg" viewBox="0 0 32 32" id="microwave">
    <path d="M26.6667 5.33331H5.33333C3.86057 5.33331 2.66666 6.52722 2.66666 7.99998V22.6666C2.66666 24.1394 3.86057 25.3333 5.33333 25.3333H26.6667C28.1394 25.3333 29.3333 24.1394 29.3333 22.6666V7.99998C29.3333 6.52722 28.1394 5.33331 26.6667 5.33331Z" stroke="#101828" stroke-width="2" stroke-linecap="round" stroke-linejoin="round"></path>
    <path d="M17.3333 10.6666H9.33333C8.59695 10.6666 8 11.2636 8 12V18.6666C8 19.403 8.59695 20 9.33333 20H17.3333C18.0697 20 18.6667 19.403 18.6667 18.6666V12C18.6667 11.2636 18.0697 10.6666 17.3333 10.6666Z" stroke="#101828" stroke-width="2" stroke-linecap="round" stroke-linejoin="round"></path>
    <path d="M24 10.6666V20M8 25.3333V28M24 25.3333V28" stroke="#101828" stroke-width="2" stroke-linecap="round" stroke-linejoin="round"></path>
  </symbol>
  <symbol fill="none" xmlns="http://www.w3.org/2000/svg" viewBox="0 0 32 32" id="fridge">
    <path d="M23.6667 9.33331C23.6667 9.0681 23.5613 8.81374 23.3738 8.62621C23.1862 8.43867 22.9319 8.33331 22.6667 8.33331C22.4014 8.33331 22.1471 8.43867 21.9596 8.62621C21.772 8.81374 21.6667 9.0681 21.6667 9.33331V12C21.6667 12.2652 21.772 12.5195 21.9596 12.7071C22.1471 12.8946 22.4014 13 22.6667 13C22.9319 13 23.1862 12.8946 23.3738 12.7071C23.5613 12.5195 23.6667 12.2652 23.6667 12V9.33331ZM23.6667 18.6666C23.6667 18.4014 23.5613 18.1471 23.3738 17.9595C23.1862 17.772 22.9319 17.6666 22.6667 17.6666C22.4014 17.6666 22.1471 17.772 21.9596 17.9595C21.772 18.1471 21.6667 18.4014 21.6667 18.6666V21.3333C21.6667 21.5985 21.772 21.8529 21.9596 22.0404C22.1471 22.228 22.4014 22.3333 22.6667 22.3333C22.9319 22.3333 23.1862 22.228 23.3738 22.0404C23.5613 21.8529 23.6667 21.5985 23.6667 21.3333V18.6666Z" fill="#101828"></path>
    <path fill-rule="evenodd" clip-rule="evenodd" d="M16.0747 1.66669H15.9253C13.4747 1.66669 11.5333 1.66669 10.0147 1.87069C8.452 2.08135 7.18667 2.52402 6.188 3.52135C5.19067 4.52002 4.748 5.78535 4.53733 7.34802C4.33333 8.86802 4.33333 10.808 4.33333 13.2587V17.408C4.33333 19.8587 4.33333 21.8 4.53733 23.3187C4.748 24.8814 5.19067 26.1467 6.188 27.1454C6.80133 27.7574 7.51333 28.16 8.33333 28.4294V29.3334C8.33333 29.8854 8.78133 30.3334 9.33333 30.3334H10.6667C10.9319 30.3334 11.1862 30.228 11.3738 30.0405C11.5613 29.8529 11.6667 29.5986 11.6667 29.3334V28.9387C12.876 29 14.2867 29 15.9253 29H16.0747C17.7147 29 19.124 29 20.3333 28.9387V29.3334C20.3333 29.8854 20.7813 30.3334 21.3333 30.3334H22.6667C22.9319 30.3334 23.1862 30.228 23.3738 30.0405C23.5613 29.8529 23.6667 29.5986 23.6667 29.3334V28.4294C24.4867 28.16 25.2 27.7574 25.812 27.1454C26.8093 26.1467 27.252 24.8814 27.4627 23.3187C27.6667 21.7987 27.6667 19.8587 27.6667 17.408V13.26C27.6667 10.8094 27.6667 8.86802 27.4627 7.34935C27.252 5.78669 26.8093 4.52135 25.812 3.52269C24.8133 2.52535 23.548 2.08269 21.9853 1.87202C20.4653 1.66802 18.5253 1.66802 16.0747 1.66802M7.60267 4.93602C8.16667 4.37202 8.94 4.03335 10.2813 3.85335C11.652 3.66935 13.4573 3.66669 16 3.66669C18.5427 3.66669 20.3493 3.66935 21.72 3.85335C23.06 4.03335 23.8333 4.37202 24.3973 4.93602C24.9613 5.50002 25.3 6.27335 25.48 7.61469C25.664 8.98535 25.6667 10.7907 25.6667 13.3334V14.3334H6.33333V13.3334C6.33333 10.7907 6.336 8.98535 6.52 7.61335C6.7 6.27335 7.03867 5.50002 7.60267 4.93602ZM6.33333 16.3334H25.6667V17.3334C25.6667 19.876 25.664 21.6827 25.48 23.0534C25.3 24.3934 24.9613 25.1667 24.3973 25.7307C23.8333 26.2947 23.06 26.6334 21.7187 26.8134C20.348 26.9974 18.5427 27 16 27C13.4573 27 11.652 26.9974 10.28 26.8134C8.94 26.6334 8.16667 26.2947 7.60267 25.7307C7.03867 25.1667 6.7 24.3934 6.52 23.052C6.336 21.6827 6.33333 19.876 6.33333 17.3334V16.3334Z" fill="#101828"></path>
  </symbol>
  <symbol fill="none" xmlns="http://www.w3.org/2000/svg" viewBox="0 0 19 18" id="radio">
    <path d="M8.75 2.125C8.75 1.95924 8.81585 1.80027 8.93306 1.68306C9.05027 1.56585 9.20924 1.5 9.375 1.5H18.125C18.2908 1.5 18.4497 1.56585 18.5669 1.68306C18.6842 1.80027 18.75 1.95924 18.75 2.125V3.375C18.75 3.54076 18.6842 3.69973 18.5669 3.81694C18.4497 3.93415 18.2908 4 18.125 4H9.375C9.20924 4 9.05027 3.93415 8.93306 3.81694C8.81585 3.69973 8.75 3.54076 8.75 3.375V2.125ZM5.58794e-08 14C5.58794e-08 13.0054 0.395088 12.0516 1.09835 11.3483C1.80161 10.6451 2.75544 10.25 3.75 10.25C4.74456 10.25 5.69839 10.6451 6.40165 11.3483C7.10491 12.0516 7.5 13.0054 7.5 14C7.5 14.9946 7.10491 15.9484 6.40165 16.6517C5.69839 17.3549 4.74456 17.75 3.75 17.75C2.75544 17.75 1.80161 17.3549 1.09835 16.6517C0.395088 15.9484 5.58794e-08 14.9946 5.58794e-08 14ZM8.75 12.125C8.75 11.9592 8.81585 11.8003 8.93306 11.6831C9.05027 11.5658 9.20924 11.5 9.375 11.5H18.125C18.2908 11.5 18.4497 11.5658 18.5669 11.6831C18.6842 11.8003 18.75 11.9592 18.75 12.125V13.375C18.75 13.5408 18.6842 13.6997 18.5669 13.8169C18.4497 13.9342 18.2908 14 18.125 14H9.375C9.20924 14 9.05027 13.9342 8.93306 13.8169C8.81585 13.6997 8.75 13.5408 8.75 13.375V12.125ZM8.75 5.875C8.75 5.70924 8.81585 5.55027 8.93306 5.43306C9.05027 5.31585 9.20924 5.25 9.375 5.25H15.625C15.7908 5.25 15.9497 5.31585 16.0669 5.43306C16.1842 5.55027 16.25 5.70924 16.25 5.875C16.25 6.04076 16.1842 6.19973 16.0669 6.31694C15.9497 6.43415 15.7908 6.5 15.625 6.5H9.375C9.20924 6.5 9.05027 6.43415 8.93306 6.31694C8.81585 6.19973 8.75 6.04076 8.75 5.875ZM8.75 15.875C8.75 15.7092 8.81585 15.5503 8.93306 15.4331C9.05027 15.3158 9.20924 15.25 9.375 15.25H15.625C15.7908 15.25 15.9497 15.3158 16.0669 15.4331C16.1842 15.5503 16.25 15.7092 16.25 15.875C16.25 16.0408 16.1842 16.1997 16.0669 16.3169C15.9497 16.4342 15.7908 16.5 15.625 16.5H9.375C9.20924 16.5 9.05027 16.4342 8.93306 16.3169C8.81585 16.1997 8.75 16.0408 8.75 15.875ZM3.75 0.25C3.25754 0.25 2.76991 0.346997 2.31494 0.535452C1.85997 0.723907 1.44657 1.00013 1.09835 1.34835C0.75013 1.69657 0.473907 2.10997 0.285452 2.56494C0.0969966 3.01991 0 3.50754 0 4C0 4.49246 0.0969966 4.98009 0.285452 5.43506C0.473907 5.89003 0.75013 6.30343 1.09835 6.65165C1.44657 6.99987 1.85997 7.27609 2.31494 7.46455C2.76991 7.653 3.25754 7.75 3.75 7.75C4.74456 7.75 5.69839 7.35491 6.40165 6.65165C7.10491 5.94839 7.5 4.99456 7.5 4C7.5 3.00544 7.10491 2.05161 6.40165 1.34835C5.69839 0.645088 4.74456 0.25 3.75 0.25ZM3.75 5.875C3.25272 5.875 2.77581 5.67746 2.42417 5.32583C2.07254 4.97419 1.875 4.49728 1.875 4C1.875 3.50272 2.07254 3.02581 2.42417 2.67417C2.77581 2.32254 3.25272 2.125 3.75 2.125C4.24728 2.125 4.72419 2.32254 5.07583 2.67417C5.42746 3.02581 5.625 3.50272 5.625 4C5.625 4.49728 5.42746 4.97419 5.07583 5.32583C4.72419 5.67746 4.24728 5.875 3.75 5.875Z" fill="#101828"></path>
  </symbol>
  <symbol fill="none" xmlns="http://www.w3.org/2000/svg" viewBox="0 0 20 20" id="fuel">
    <path d="M3.75 3.125C3.75 2.95924 3.81585 2.80027 3.93306 2.68306C4.05027 2.56585 4.20924 2.5 4.375 2.5H10.625C10.7908 2.5 10.9497 2.56585 11.0669 2.68306C11.1842 2.80027 11.25 2.95924 11.25 3.125V9.375C11.25 9.54076 11.1842 9.69973 11.0669 9.81694C10.9497 9.93415 10.7908 10 10.625 10H4.375C4.20924 10 4.05027 9.93415 3.93306 9.81694C3.81585 9.69973 3.75 9.54076 3.75 9.375V3.125Z" fill="#101828"></path>
    <path d="M1.25 2.5C1.25 1.83696 1.51339 1.20107 1.98223 0.732233C2.45107 0.263392 3.08696 0 3.75 0L11.25 0C11.913 0 12.5489 0.263392 13.0178 0.732233C13.4866 1.20107 13.75 1.83696 13.75 2.5V12.5C14.413 12.5 15.0489 12.7634 15.5178 13.2322C15.9866 13.7011 16.25 14.337 16.25 15V15.625C16.25 15.7908 16.3158 15.9497 16.4331 16.0669C16.5503 16.1842 16.7092 16.25 16.875 16.25C17.0408 16.25 17.1997 16.1842 17.3169 16.0669C17.4342 15.9497 17.5 15.7908 17.5 15.625V10H16.875C16.7092 10 16.5503 9.93415 16.4331 9.81694C16.3158 9.69973 16.25 9.54076 16.25 9.375V5.46875C16.25 5.30299 16.3158 5.14402 16.4331 5.02681C16.5503 4.9096 16.7092 4.84375 16.875 4.84375H18.7437C18.73 4.24875 18.6775 3.72625 18.4925 3.31625C18.3935 3.07785 18.2209 2.87729 18 2.74375C17.77 2.60625 17.42 2.5 16.875 2.5C16.7092 2.5 16.5503 2.43415 16.4331 2.31694C16.3158 2.19973 16.25 2.04076 16.25 1.875C16.25 1.70924 16.3158 1.55027 16.4331 1.43306C16.5503 1.31585 16.7092 1.25 16.875 1.25C17.58 1.24833 18.1683 1.38833 18.64 1.67C19.1187 1.955 19.4325 2.35875 19.6325 2.80375C20.0013 3.6225 20 4.635 20 5.405V9.37375C20.0002 9.45593 19.9841 9.53734 19.9528 9.61331C19.9214 9.68928 19.8754 9.75833 19.8174 9.8165C19.7593 9.87467 19.6904 9.92082 19.6145 9.95231C19.5386 9.98379 19.4572 10 19.375 10H18.75V15.625C18.75 16.1223 18.5525 16.5992 18.2008 16.9508C17.8492 17.3025 17.3723 17.5 16.875 17.5C16.3777 17.5 15.9008 17.3025 15.5492 16.9508C15.1975 16.5992 15 16.1223 15 15.625V15C15 14.6685 14.8683 14.3505 14.6339 14.1161C14.3995 13.8817 14.0815 13.75 13.75 13.75V18.75H14.375C14.5408 18.75 14.6997 18.8158 14.8169 18.9331C14.9342 19.0503 15 19.2092 15 19.375C15 19.5408 14.9342 19.6997 14.8169 19.8169C14.6997 19.9342 14.5408 20 14.375 20H0.625C0.45924 20 0.300269 19.9342 0.183058 19.8169C0.065848 19.6997 0 19.5408 0 19.375C0 19.2092 0.065848 19.0503 0.183058 18.9331C0.300269 18.8158 0.45924 18.75 0.625 18.75H1.25V2.5ZM12.5 2.5C12.5 2.16848 12.3683 1.85054 12.1339 1.61612C11.8995 1.3817 11.5815 1.25 11.25 1.25H3.75C3.41848 1.25 3.10054 1.3817 2.86612 1.61612C2.6317 1.85054 2.5 2.16848 2.5 2.5V18.75H12.5V2.5Z" fill="#101828"></path>
  </symbol>
  <symbol fill="none" xmlns="http://www.w3.org/2000/svg" viewBox="0 0 28 28" id="alcove">
    <path d="M6 2V6H2V2H6ZM8 26V22C8 21.4696 7.78929 20.9609 7.41421 20.5858C7.03914 20.2107 6.53043 20 6 20H2C1.46957 20 0.960859 20.2107 0.585786 20.5858C0.210714 20.9609 0 21.4696 0 22V26C0 26.5304 0.210714 27.0391 0.585786 27.4142C0.960859 27.7893 1.46957 28 2 28H6C6.53043 28 7.03914 27.7893 7.41421 27.4142C7.78929 27.0391 8 26.5304 8 26ZM8 16V12C8 11.4696 7.78929 10.9609 7.41421 10.5858C7.03914 10.2107 6.53043 10 6 10H2C1.46957 10 0.960859 10.2107 0.585786 10.5858C0.210714 10.9609 0 11.4696 0 12V16C0 16.5304 0.210714 17.0391 0.585786 17.4142C0.960859 17.7893 1.46957 18 2 18H6C6.53043 18 7.03914 17.7893 7.41421 17.4142C7.78929 17.0391 8 16.5304 8 16ZM8 6V2C8 1.46957 7.78929 0.960859 7.41421 0.585786C7.03914 0.210714 6.53043 0 6 0H2C1.46957 0 0.960859 0.210714 0.585786 0.585786C0.210714 0.960859 0 1.46957 0 2V6C0 6.53043 0.210714 7.03914 0.585786 7.41421C0.960859 7.78929 1.46957 8 2 8H6C6.53043 8 7.03914 7.78929 7.41421 7.41421C7.78929 7.03914 8 6.53043 8 6ZM18 26V22C18 21.4696 17.7893 20.9609 17.4142 20.5858C17.0391 20.2107 16.5304 20 16 20H12C11.4696 20 10.9609 20.2107 10.5858 20.5858C10.2107 20.9609 10 21.4696 10 22V26C10 26.5304 10.2107 27.0391 10.5858 27.4142C10.9609 27.7893 11.4696 28 12 28H16C16.5304 28 17.0391 27.7893 17.4142 27.4142C17.7893 27.0391 18 26.5304 18 26ZM18 16V12C18 11.4696 17.7893 10.9609 17.4142 10.5858C17.0391 10.2107 16.5304 10 16 10H12C11.4696 10 10.9609 10.2107 10.5858 10.5858C10.2107 10.9609 10 11.4696 10 12V16C10 16.5304 10.2107 17.0391 10.5858 17.4142C10.9609 17.7893 11.4696 18 12 18H16C16.5304 18 17.0391 17.7893 17.4142 17.4142C17.7893 17.0391 18 16.5304 18 16ZM18 6V2C18 1.46957 17.7893 0.960859 17.4142 0.585786C17.0391 0.210714 16.5304 0 16 0H12C11.4696 0 10.9609 0.210714 10.5858 0.585786C10.2107 0.960859 10 1.46957 10 2V6C10 6.53043 10.2107 7.03914 10.5858 7.41421C10.9609 7.78929 11.4696 8 12 8H16C16.5304 8 17.0391 7.78929 17.4142 7.41421C17.7893 7.03914 18 6.53043 18 6ZM16 2V6H12V2H16ZM26 2V6H22V2H26ZM6 12V16H2V12H6ZM16 12V16H12V12H16ZM26 12H22V16H26V12ZM6 22V26H2V22H6ZM16 22V26H12V22H16ZM26 22V26H22V22H26ZM22 0C21.4696 0 20.9609 0.210714 20.5858 0.585786C20.2107 0.960859 20 1.46957 20 2V6C20 6.53043 20.2107 7.03914 20.5858 7.41421C20.9609 7.78929 21.4696 8 22 8H26C26.5304 8 27.0391 7.78929 27.4142 7.41421C27.7893 7.03914 28 6.53043 28 6V2C28 1.46957 27.7893 0.960859 27.4142 0.585786C27.0391 0.210714 26.5304 0 26 0H22ZM20 12C20 11.4696 20.2107 10.9609 20.5858 10.5858C20.9609 10.2107 21.4696 10 22 10H26C26.5304 10 27.0391 10.2107 27.4142 10.5858C27.7893 10.9609 28 11.4696 28 12V16C28 16.5304 27.7893 17.0391 27.4142 17.4142C27.0391 17.7893 26.5304 18 26 18H22C21.4696 18 20.9609 17.7893 20.5858 17.4142C20.2107 17.0391 20 16.5304 20 16V12ZM22 20C21.4696 20 20.9609 20.2107 20.5858 20.5858C20.2107 20.9609 20 21.4696 20 22V26C20 26.5304 20.2107 27.0391 20.5858 27.4142C20.9609 27.7893 21.4696 28 22 28H26C26.5304 28 27.0391 27.7893 27.4142 27.4142C27.7893 27.0391 28 26.5304 28 26V22C28 21.4696 27.7893 20.9609 27.4142 20.5858C27.0391 20.2107 26.5304 20 26 20H22Z" fill="#101828"></path>
  </symbol>
  <symbol fill="none" xmlns="http://www.w3.org/2000/svg" viewBox="0 0 28 28" id="fully">
    <path d="M0 3C0 2.20435 0.316071 1.44129 0.87868 0.87868C1.44129 0.316071 2.20435 0 3 0H9C9.79565 0 10.5587 0.316071 11.1213 0.87868C11.6839 1.44129 12 2.20435 12 3V9C12 9.79565 11.6839 10.5587 11.1213 11.1213C10.5587 11.6839 9.79565 12 9 12H3C2.20435 12 1.44129 11.6839 0.87868 11.1213C0.316071 10.5587 0 9.79565 0 9V3ZM3 2C2.73478 2 2.48043 2.10536 2.29289 2.29289C2.10536 2.48043 2 2.73478 2 3V9C2 9.26522 2.10536 9.51957 2.29289 9.70711C2.48043 9.89464 2.73478 10 3 10H9C9.26522 10 9.51957 9.89464 9.70711 9.70711C9.89464 9.51957 10 9.26522 10 9V3C10 2.73478 9.89464 2.48043 9.70711 2.29289C9.51957 2.10536 9.26522 2 9 2H3ZM16 3C16 2.20435 16.3161 1.44129 16.8787 0.87868C17.4413 0.316071 18.2044 0 19 0H25C25.7956 0 26.5587 0.316071 27.1213 0.87868C27.6839 1.44129 28 2.20435 28 3V9C28 9.79565 27.6839 10.5587 27.1213 11.1213C26.5587 11.6839 25.7956 12 25 12H19C18.2044 12 17.4413 11.6839 16.8787 11.1213C16.3161 10.5587 16 9.79565 16 9V3ZM19 2C18.7348 2 18.4804 2.10536 18.2929 2.29289C18.1054 2.48043 18 2.73478 18 3V9C18 9.26522 18.1054 9.51957 18.2929 9.70711C18.4804 9.89464 18.7348 10 19 10H25C25.2652 10 25.5196 9.89464 25.7071 9.70711C25.8946 9.51957 26 9.26522 26 9V3C26 2.73478 25.8946 2.48043 25.7071 2.29289C25.5196 2.10536 25.2652 2 25 2H19ZM0 19C0 18.2044 0.316071 17.4413 0.87868 16.8787C1.44129 16.3161 2.20435 16 3 16H9C9.79565 16 10.5587 16.3161 11.1213 16.8787C11.6839 17.4413 12 18.2044 12 19V25C12 25.7956 11.6839 26.5587 11.1213 27.1213C10.5587 27.6839 9.79565 28 9 28H3C2.20435 28 1.44129 27.6839 0.87868 27.1213C0.316071 26.5587 0 25.7956 0 25V19ZM3 18C2.73478 18 2.48043 18.1054 2.29289 18.2929C2.10536 18.4804 2 18.7348 2 19V25C2 25.2652 2.10536 25.5196 2.29289 25.7071C2.48043 25.8946 2.73478 26 3 26H9C9.26522 26 9.51957 25.8946 9.70711 25.7071C9.89464 25.5196 10 25.2652 10 25V19C10 18.7348 9.89464 18.4804 9.70711 18.2929C9.51957 18.1054 9.26522 18 9 18H3ZM16 19C16 18.2044 16.3161 17.4413 16.8787 16.8787C17.4413 16.3161 18.2044 16 19 16H25C25.7956 16 26.5587 16.3161 27.1213 16.8787C27.6839 17.4413 28 18.2044 28 19V25C28 25.7956 27.6839 26.5587 27.1213 27.1213C26.5587 27.6839 25.7956 28 25 28H19C18.2044 28 17.4413 27.6839 16.8787 27.1213C16.3161 26.5587 16 25.7956 16 25V19ZM19 18C18.7348 18 18.4804 18.1054 18.2929 18.2929C18.1054 18.4804 18 18.7348 18 19V25C18 25.2652 18.1054 25.5196 18.2929 25.7071C18.4804 25.8946 18.7348 26 19 26H25C25.2652 26 25.5196 25.8946 25.7071 25.7071C25.8946 25.5196 26 25.2652 26 25V19C26 18.7348 25.8946 18.4804 25.7071 18.2929C25.5196 18.1054 25.2652 18 25 18H19Z" fill="#101828"></path>
  </symbol>
  <symbol fill="none" xmlns="http://www.w3.org/2000/svg" viewBox="0 0 32 32" id="van">
    <path d="M12 2H2V30H12V2ZM30 2H20V12H30V2ZM30 20V30H20V20H30ZM0 2C0 1.46957 0.210714 0.960859 0.585786 0.585786C0.960859 0.210714 1.46957 0 2 0L12 0C12.5304 0 13.0391 0.210714 13.4142 0.585786C13.7893 0.960859 14 1.46957 14 2V30C14 30.5304 13.7893 31.0391 13.4142 31.4142C13.0391 31.7893 12.5304 32 12 32H2C1.46957 32 0.960859 31.7893 0.585786 31.4142C0.210714 31.0391 0 30.5304 0 30V2ZM18 2C18 1.46957 18.2107 0.960859 18.5858 0.585786C18.9609 0.210714 19.4696 0 20 0L30 0C30.5304 0 31.0391 0.210714 31.4142 0.585786C31.7893 0.960859 32 1.46957 32 2V12C32 12.5304 31.7893 13.0391 31.4142 13.4142C31.0391 13.7893 30.5304 14 30 14H20C19.4696 14 18.9609 13.7893 18.5858 13.4142C18.2107 13.0391 18 12.5304 18 12V2ZM20 18C19.4696 18 18.9609 18.2107 18.5858 18.5858C18.2107 18.9609 18 19.4696 18 20V30C18 30.5304 18.2107 31.0391 18.5858 31.4142C18.9609 31.7893 19.4696 32 20 32H30C30.5304 32 31.0391 31.7893 31.4142 31.4142C31.7893 31.0391 32 30.5304 32 30V20C32 19.4696 31.7893 18.9609 31.4142 18.5858C31.0391 18.2107 30.5304 18 30 18H20Z" fill="#101828"></path>
  </symbol>
  <symbol fill="none" xmlns="http://www.w3.org/2000/svg" viewBox="0 0 31 27" id="shower">
    <path d="M7 25.5C7 25.7967 6.91203 26.0867 6.7472 26.3334C6.58238 26.58 6.34811 26.7723 6.07403 26.8858C5.79994 26.9993 5.49834 27.0291 5.20737 26.9712C4.91639 26.9133 4.64912 26.7704 4.43934 26.5607C4.22956 26.3509 4.0867 26.0836 4.02882 25.7926C3.97094 25.5017 4.00065 25.2001 4.11418 24.926C4.22771 24.6519 4.41997 24.4176 4.66665 24.2528C4.91332 24.088 5.20333 24 5.5 24C5.89783 24 6.27936 24.158 6.56066 24.4393C6.84197 24.7206 7 25.1022 7 25.5ZM9.5 20C9.20333 20 8.91332 20.088 8.66665 20.2528C8.41997 20.4176 8.22771 20.6519 8.11418 20.926C8.00065 21.2001 7.97094 21.5017 8.02882 21.7926C8.0867 22.0836 8.22956 22.3509 8.43934 22.5607C8.64912 22.7704 8.91639 22.9133 9.20737 22.9712C9.49834 23.0291 9.79994 22.9993 10.074 22.8858C10.3481 22.7723 10.5824 22.58 10.7472 22.3334C10.912 22.0867 11 21.7967 11 21.5C11 21.1022 10.842 20.7206 10.5607 20.4393C10.2794 20.158 9.89783 20 9.5 20ZM1.5 20C1.20333 20 0.913319 20.088 0.666645 20.2528C0.419972 20.4176 0.227713 20.6519 0.114181 20.926C0.000649929 21.2001 -0.0290551 21.5017 0.0288228 21.7926C0.0867006 22.0836 0.229562 22.3509 0.439341 22.5607C0.649119 22.7704 0.916394 22.9133 1.20737 22.9712C1.49834 23.0291 1.79994 22.9993 2.07403 22.8858C2.34811 22.7723 2.58238 22.58 2.74721 22.3334C2.91203 22.0867 3 21.7967 3 21.5C3 21.1022 2.84197 20.7206 2.56066 20.4393C2.27936 20.158 1.89783 20 1.5 20ZM5.5 16C5.20333 16 4.91332 16.088 4.66665 16.2528C4.41997 16.4176 4.22771 16.6519 4.11418 16.926C4.00065 17.2001 3.97094 17.5017 4.02882 17.7926C4.0867 18.0836 4.22956 18.3509 4.43934 18.5607C4.64912 18.7704 4.91639 18.9133 5.20737 18.9712C5.49834 19.0291 5.79994 18.9993 6.07403 18.8858C6.34811 18.7723 6.58238 18.58 6.7472 18.3334C6.91203 18.0867 7 17.7967 7 17.5C7 17.1022 6.84197 16.7206 6.56066 16.4393C6.27936 16.158 5.89783 16 5.5 16ZM31 1C31 1.26522 30.8946 1.51957 30.7071 1.70711C30.5196 1.89464 30.2652 2 30 2H26.4137L22.9325 5.4825L20.225 21.3312C20.1641 21.6933 20.0046 22.0317 19.7642 22.3091C19.5237 22.5866 19.2115 22.7925 18.8617 22.9043C18.512 23.0161 18.1382 23.0295 17.7814 22.943C17.4245 22.8564 17.0984 22.6733 16.8388 22.4137L4.58875 10.1637C4.32875 9.90387 4.14541 9.57735 4.05887 9.22008C3.97233 8.8628 3.98593 8.48858 4.09817 8.13853C4.21042 7.78848 4.41698 7.47613 4.69515 7.23581C4.97333 6.99548 5.31236 6.83647 5.675 6.77625L21.5175 4.0675L25.2925 0.2925C25.3854 0.199666 25.4958 0.126052 25.6171 0.0758637C25.7385 0.0256756 25.8686 -0.000102986 26 3.09201e-07H30C30.2652 3.09201e-07 30.5196 0.105357 30.7071 0.292894C30.8946 0.48043 31 0.734784 31 1ZM20.7763 6.22375L6 8.75L18.25 21L20.7763 6.22375Z" fill="#101828"></path>
  </symbol>
  <symbol fill="none" xmlns="http://www.w3.org/2000/svg" viewBox="0 0 32 25" id="tv">
    <path d="M0 4C0 4 0 0 4 0H28C28 0 32 0 32 4V16C32 16 32 20 28 20H20C20 21.3333 20.1667 22.3333 20.5 23H22C22.2652 23 22.5196 23.1054 22.7071 23.2929C22.8946 23.4804 23 23.7348 23 24C23 24.2652 22.8946 24.5196 22.7071 24.7071C22.5196 24.8946 22.2652 25 22 25H10C9.73478 25 9.48043 24.8946 9.29289 24.7071C9.10536 24.5196 9 24.2652 9 24C9 23.7348 9.10536 23.4804 9.29289 23.2929C9.48043 23.1054 9.73478 23 10 23H11.5C11.8333 22.3333 12 21.3333 12 20H4C4 20 0 20 0 16V4ZM2.796 2.29C2.57644 2.44309 2.4012 2.65145 2.288 2.894C2.11952 3.24697 2.02168 3.62948 2 4.02V16C2 16.65 2.156 17.004 2.29 17.204C2.43 17.412 2.63133 17.5813 2.894 17.712C3.23168 17.8736 3.59663 17.9706 3.97 17.998L4.02 18H28C28.65 18 29.004 17.844 29.204 17.71C29.4236 17.5569 29.5988 17.3486 29.712 17.106C29.8736 16.7683 29.9706 16.4034 29.998 16.03L30 15.98V4C30 3.35 29.844 2.996 29.71 2.796C29.5569 2.57644 29.3486 2.4012 29.106 2.288C28.753 2.11952 28.3705 2.02168 27.98 2H4C3.35 2 2.996 2.156 2.796 2.29Z" fill="#101828"></path>
  </symbol>
  <symbol fill="none" xmlns="http://www.w3.org/2000/svg" viewBox="0 0 33 32" id="cup-hot">
    <path fill-rule="evenodd" clip-rule="evenodd" d="M1.50009 12C1.35046 12.0001 1.20275 12.0337 1.06784 12.0984C0.93294 12.1632 0.814284 12.2574 0.720622 12.3741C0.626959 12.4907 0.560679 12.627 0.526666 12.7727C0.492653 12.9184 0.491774 13.0699 0.524095 13.216L3.82809 28.084C4.07472 29.1945 4.69264 30.1877 5.57986 30.8997C6.46707 31.6116 7.57054 31.9998 8.7081 32H20.2921C21.4297 31.9998 22.5331 31.6116 23.4203 30.8997C24.3076 30.1877 24.9255 29.1945 25.1721 28.084L25.4341 26.904C26.9639 27.1901 28.5451 26.8706 29.8438 26.0129C31.1425 25.1552 32.0571 23.8264 32.3945 22.307C32.7319 20.7876 32.4657 19.1966 31.6521 17.8698C30.8386 16.543 29.5413 15.5843 28.0341 15.196L28.4761 13.216C28.5084 13.0699 28.5075 12.9184 28.4735 12.7727C28.4395 12.627 28.3732 12.4907 28.2796 12.3741C28.1859 12.2574 28.0673 12.1632 27.9323 12.0984C27.7974 12.0337 27.6497 12.0001 27.5001 12H1.50009ZM26.5001 25C26.2884 25.0001 26.0771 24.9834 25.8681 24.95L27.6021 17.154C28.5271 17.4219 29.3245 18.0144 29.8479 18.8227C30.3714 19.631 30.5858 20.601 30.4518 21.5546C30.3179 22.5083 29.8446 23.3817 29.1187 24.0145C28.3928 24.6474 27.4631 24.9973 26.5001 25ZM5.7801 27.65L2.74609 14H26.2541L23.2201 27.65C23.0722 28.3164 22.7015 28.9124 22.1691 29.3396C21.6368 29.7669 20.9747 29.9998 20.2921 30H8.7081C8.02551 29.9998 7.36338 29.7669 6.83105 29.3396C6.29871 28.9124 5.92799 28.3164 5.7801 27.65Z" fill="#101828"></path>
    <path d="M9.3 1.6L9.294 1.608L9.266 1.646C9.12048 1.84624 8.98433 2.05313 8.858 2.266C8.75068 2.43664 8.65641 2.61515 8.576 2.8C8.524 2.92 8.508 2.984 8.502 3.006V3.014C8.52506 3.1908 8.58724 3.36024 8.684 3.51C8.834 3.776 9.04 4.054 9.3 4.4L9.32 4.424C9.556 4.74 9.84 5.118 10.06 5.51C10.284 5.91 10.5 6.42 10.5 7C10.5 7.376 10.37 7.736 10.262 7.988C10.1464 8.25615 10.0114 8.51551 9.858 8.764C9.7011 9.02626 9.53225 9.2812 9.352 9.528L9.316 9.578L9.306 9.594L9.302 9.598C9.14314 9.81043 8.90639 9.95106 8.64384 9.98895C8.38129 10.0268 8.11444 9.95886 7.902 9.8C7.68956 9.64113 7.54893 9.40438 7.51105 9.14183C7.47317 8.87928 7.54114 8.61244 7.7 8.4L7.706 8.392L7.734 8.354C7.87952 8.15375 8.01567 7.94687 8.142 7.734C8.24932 7.56336 8.34359 7.38485 8.424 7.2C8.476 7.08 8.492 7.016 8.498 6.994C8.47671 6.81459 8.41517 6.64231 8.318 6.49C8.13235 6.17971 7.92588 5.88236 7.7 5.6L7.68 5.576C7.40979 5.23062 7.16259 4.86783 6.94 4.49C6.66759 4.03945 6.51604 3.52625 6.5 3C6.5 2.624 6.63 2.264 6.738 2.012C6.856 1.736 7.006 1.464 7.142 1.236C7.30088 0.974982 7.46967 0.72013 7.648 0.471998L7.698 0.401999C7.85686 0.18956 8.09361 0.0489314 8.35616 0.0110491C8.61872 -0.0268333 8.88556 0.0411339 9.098 0.199999C9.31044 0.358863 9.45107 0.595612 9.48895 0.858163C9.52683 1.12071 9.45886 1.38756 9.3 1.6ZM15.3 1.6L15.294 1.608L15.266 1.646C15.1205 1.84624 14.9843 2.05313 14.858 2.266C14.7507 2.43664 14.6564 2.61515 14.576 2.8C14.524 2.92 14.508 2.984 14.502 3.006V3.014C14.5251 3.1908 14.5872 3.36024 14.684 3.51C14.834 3.776 15.04 4.054 15.3 4.4L15.32 4.424C15.556 4.74 15.84 5.118 16.06 5.51C16.284 5.91 16.5 6.42 16.5 7C16.5 7.376 16.37 7.736 16.262 7.988C16.1464 8.25615 16.0114 8.51551 15.858 8.764C15.7011 9.02626 15.5323 9.2812 15.352 9.528L15.316 9.578L15.306 9.594L15.302 9.598C15.1431 9.81043 14.9064 9.95106 14.6438 9.98895C14.3813 10.0268 14.1144 9.95886 13.902 9.8C13.6896 9.64113 13.5489 9.40438 13.5111 9.14183C13.4732 8.87928 13.5411 8.61244 13.7 8.4L13.706 8.392L13.734 8.354C13.8795 8.15375 14.0157 7.94687 14.142 7.734C14.2493 7.56336 14.3436 7.38485 14.424 7.2C14.476 7.08 14.492 7.016 14.498 6.994C14.4767 6.81459 14.4152 6.64231 14.318 6.49C14.1323 6.17971 13.9259 5.88236 13.7 5.6L13.68 5.576C13.4098 5.23062 13.1626 4.86783 12.94 4.49C12.6676 4.03945 12.516 3.52625 12.5 3C12.5 2.624 12.63 2.264 12.738 2.012C12.856 1.736 13.006 1.464 13.142 1.236C13.3009 0.974982 13.4697 0.72013 13.648 0.471998L13.698 0.401999C13.8569 0.18956 14.0936 0.0489314 14.3562 0.011049C14.6187 -0.0268333 14.8856 0.0411339 15.098 0.199999C15.3104 0.358863 15.4511 0.595612 15.4889 0.858163C15.5268 1.12071 15.4589 1.38756 15.3 1.6ZM21.3 1.6L21.294 1.608L21.266 1.646C21.1205 1.84624 20.9843 2.05313 20.858 2.266C20.7507 2.43664 20.6564 2.61515 20.576 2.8C20.524 2.92 20.508 2.984 20.502 3.006V3.014C20.5251 3.1908 20.5872 3.36024 20.684 3.51C20.834 3.776 21.04 4.054 21.3 4.4L21.32 4.424C21.556 4.74 21.84 5.118 22.06 5.51C22.284 5.91 22.5 6.42 22.5 7C22.5 7.376 22.37 7.736 22.262 7.988C22.1464 8.25615 22.0114 8.51551 21.858 8.764C21.7017 9.02622 21.5336 9.28116 21.354 9.528L21.316 9.578L21.306 9.594L21.302 9.598C21.1431 9.81043 20.9064 9.95106 20.6438 9.98895C20.3813 10.0268 20.1144 9.95886 19.902 9.8C19.6896 9.64113 19.5489 9.40438 19.5111 9.14183C19.4732 8.87928 19.5411 8.61244 19.7 8.4L19.706 8.392L19.734 8.354C19.8795 8.15375 20.0157 7.94687 20.142 7.734C20.2493 7.56336 20.3436 7.38485 20.424 7.2C20.476 7.08 20.492 7.016 20.498 6.994C20.4767 6.81459 20.4152 6.64231 20.318 6.49C20.1324 6.17971 19.9259 5.88236 19.7 5.6L19.68 5.576C19.4098 5.23062 19.1626 4.86783 18.94 4.49C18.6676 4.03945 18.516 3.52625 18.5 3C18.5 2.624 18.63 2.264 18.738 2.012C18.856 1.736 19.006 1.464 19.142 1.236C19.3009 0.974982 19.4697 0.72013 19.648 0.471998L19.698 0.401999C19.8569 0.18956 20.0936 0.0489314 20.3562 0.011049C20.6187 -0.0268333 20.8856 0.0411339 21.098 0.199999C21.3104 0.358863 21.4511 0.595612 21.4889 0.858163C21.5268 1.12071 21.4589 1.38756 21.3 1.6Z" fill="#101828"></path>
  </symbol>
  <symbol fill="none" xmlns="http://www.w3.org/2000/svg" viewBox="0 0 32 24" id="diagram">
    <path fill-rule="evenodd" clip-rule="evenodd" d="M12 3C12 2.20435 12.3161 1.44129 12.8787 0.87868C13.4413 0.316071 14.2044 0 15 0H17C17.7956 0 18.5587 0.316071 19.1213 0.87868C19.6839 1.44129 20 2.20435 20 3V5C20 5.79565 19.6839 6.55871 19.1213 7.12132C18.5587 7.68393 17.7956 8 17 8V10H28C28.2652 10 28.5196 10.1054 28.7071 10.2929C28.8946 10.4804 29 10.7348 29 11V13C29 13.2652 28.8946 13.5196 28.7071 13.7071C28.5196 13.8946 28.2652 14 28 14C27.7348 14 27.4804 13.8946 27.2929 13.7071C27.1054 13.5196 27 13.2652 27 13V12H17V13C17 13.2652 16.8946 13.5196 16.7071 13.7071C16.5196 13.8946 16.2652 14 16 14C15.7348 14 15.4804 13.8946 15.2929 13.7071C15.1054 13.5196 15 13.2652 15 13V12H5V13C5 13.2652 4.89464 13.5196 4.70711 13.7071C4.51957 13.8946 4.26522 14 4 14C3.73478 14 3.48043 13.8946 3.29289 13.7071C3.10536 13.5196 3 13.2652 3 13V11C3 10.7348 3.10536 10.4804 3.29289 10.2929C3.48043 10.1054 3.73478 10 4 10H15V8C14.2044 8 13.4413 7.68393 12.8787 7.12132C12.3161 6.55871 12 5.79565 12 5V3ZM17 6C17.2652 6 17.5196 5.89464 17.7071 5.70711C17.8946 5.51957 18 5.26522 18 5V3C18 2.73478 17.8946 2.48043 17.7071 2.29289C17.5196 2.10536 17.2652 2 17 2H15C14.7348 2 14.4804 2.10536 14.2929 2.29289C14.1054 2.48043 14 2.73478 14 3V5C14 5.26522 14.1054 5.51957 14.2929 5.70711C14.4804 5.89464 14.7348 6 15 6H17ZM0 19C0 18.2044 0.31607 17.4413 0.87868 16.8787C1.44129 16.3161 2.20435 16 3 16H5C5.79565 16 6.55871 16.3161 7.12132 16.8787C7.68393 17.4413 8 18.2044 8 19V21C8 21.7956 7.68393 22.5587 7.12132 23.1213C6.55871 23.6839 5.79565 24 5 24H3C2.20435 24 1.44129 23.6839 0.87868 23.1213C0.31607 22.5587 0 21.7956 0 21L0 19ZM3 18C2.73478 18 2.48043 18.1054 2.29289 18.2929C2.10536 18.4804 2 18.7348 2 19V21C2 21.2652 2.10536 21.5196 2.29289 21.7071C2.48043 21.8946 2.73478 22 3 22H5C5.26522 22 5.51957 21.8946 5.70711 21.7071C5.89464 21.5196 6 21.2652 6 21V19C6 18.7348 5.89464 18.4804 5.70711 18.2929C5.51957 18.1054 5.26522 18 5 18H3ZM12 19C12 18.2044 12.3161 17.4413 12.8787 16.8787C13.4413 16.3161 14.2044 16 15 16H17C17.7956 16 18.5587 16.3161 19.1213 16.8787C19.6839 17.4413 20 18.2044 20 19V21C20 21.7956 19.6839 22.5587 19.1213 23.1213C18.5587 23.6839 17.7956 24 17 24H15C14.2044 24 13.4413 23.6839 12.8787 23.1213C12.3161 22.5587 12 21.7956 12 21V19ZM15 18C14.7348 18 14.4804 18.1054 14.2929 18.2929C14.1054 18.4804 14 18.7348 14 19V21C14 21.2652 14.1054 21.5196 14.2929 21.7071C14.4804 21.8946 14.7348 22 15 22H17C17.2652 22 17.5196 21.8946 17.7071 21.7071C17.8946 21.5196 18 21.2652 18 21V19C18 18.7348 17.8946 18.4804 17.7071 18.2929C17.5196 18.1054 17.2652 18 17 18H15ZM24 19C24 18.2044 24.3161 17.4413 24.8787 16.8787C25.4413 16.3161 26.2044 16 27 16H29C29.7956 16 30.5587 16.3161 31.1213 16.8787C31.6839 17.4413 32 18.2044 32 19V21C32 21.7956 31.6839 22.5587 31.1213 23.1213C30.5587 23.6839 29.7956 24 29 24H27C26.2044 24 25.4413 23.6839 24.8787 23.1213C24.3161 22.5587 24 21.7956 24 21V19ZM27 18C26.7348 18 26.4804 18.1054 26.2929 18.2929C26.1054 18.4804 26 18.7348 26 19V21C26 21.2652 26.1054 21.5196 26.2929 21.7071C26.4804 21.8946 26.7348 22 27 22H29C29.2652 22 29.5196 21.8946 29.7071 21.7071C29.8946 21.5196 30 21.2652 30 21V19C30 18.7348 29.8946 18.4804 29.7071 18.2929C29.5196 18.1054 29.2652 18 29 18H27Z" fill="#101828"></path>
  </symbol>
  <symbol fill="none" xmlns="http://www.w3.org/2000/svg" viewBox="0 0 32 28" id="wind">
    <path d="M25 2C23.6739 2 22.4021 2.52678 21.4645 3.46447C20.5268 4.40215 20 5.67392 20 7C20 7.26522 19.8946 7.51957 19.7071 7.70711C19.5196 7.89464 19.2652 8 19 8C18.7348 8 18.4804 7.89464 18.2929 7.70711C18.1054 7.51957 18 7.26522 18 7C18 5.61553 18.4105 4.26215 19.1797 3.11101C19.9489 1.95986 21.0421 1.06266 22.3212 0.532843C23.6003 0.00302917 25.0078 -0.135594 26.3656 0.134502C27.7235 0.404599 28.9708 1.07128 29.9497 2.05025C30.9287 3.02922 31.5954 4.2765 31.8655 5.63437C32.1356 6.99223 31.997 8.3997 31.4672 9.67878C30.9373 10.9579 30.0401 12.0511 28.889 12.8203C27.7378 13.5895 26.3845 14 25 14H1C0.734784 14 0.48043 13.8946 0.292893 13.7071C0.105357 13.5196 0 13.2652 0 13C0 12.7348 0.105357 12.4804 0.292893 12.2929C0.48043 12.1054 0.734784 12 1 12H25C26.3261 12 27.5979 11.4732 28.5355 10.5355C29.4732 9.59785 30 8.32608 30 7C30 5.67392 29.4732 4.40215 28.5355 3.46447C27.5979 2.52678 26.3261 2 25 2ZM11 4C10.4696 4 9.96086 4.21071 9.58579 4.58579C9.21071 4.96086 9 5.46957 9 6C9 6.26522 8.89464 6.51957 8.70711 6.70711C8.51957 6.89464 8.26522 7 8 7C7.73478 7 7.48043 6.89464 7.29289 6.70711C7.10536 6.51957 7 6.26522 7 6C7 5.20887 7.2346 4.43552 7.67412 3.77772C8.11365 3.11992 8.73836 2.60723 9.46927 2.30448C10.2002 2.00173 11.0044 1.92252 11.7804 2.07686C12.5563 2.2312 13.269 2.61216 13.8284 3.17157C14.3878 3.73098 14.7688 4.44371 14.9231 5.21964C15.0775 5.99556 14.9983 6.79983 14.6955 7.53073C14.3928 8.26164 13.8801 8.88635 13.2223 9.32588C12.5645 9.7654 11.7911 10 11 10H1C0.734784 10 0.48043 9.89464 0.292893 9.70711C0.105357 9.51957 0 9.26522 0 9C0 8.73478 0.105357 8.48043 0.292893 8.29289C0.48043 8.10536 0.734784 8 1 8H11C11.5304 8 12.0391 7.78929 12.4142 7.41421C12.7893 7.03914 13 6.53043 13 6C13 5.46957 12.7893 4.96086 12.4142 4.58579C12.0391 4.21071 11.5304 4 11 4ZM0 17C0 16.7348 0.105357 16.4804 0.292893 16.2929C0.48043 16.1054 0.734784 16 1 16H21.084C22.2707 16 23.4307 16.3519 24.4174 17.0112C25.4041 17.6705 26.1732 18.6075 26.6273 19.7039C27.0814 20.8003 27.2002 22.0067 26.9687 23.1705C26.7372 24.3344 26.1658 25.4035 25.3266 26.2426C24.4875 27.0818 23.4184 27.6532 22.2545 27.8847C21.0907 28.1162 19.8843 27.9974 18.7879 27.5433C17.6915 27.0892 16.7545 26.3201 16.0952 25.3334C15.4359 24.3467 15.084 23.1867 15.084 22C15.084 21.7348 15.1894 21.4804 15.3769 21.2929C15.5644 21.1054 15.8188 21 16.084 21C16.3492 21 16.6036 21.1054 16.7911 21.2929C16.9786 21.4804 17.084 21.7348 17.084 22C17.084 22.7911 17.3186 23.5645 17.7581 24.2223C18.1976 24.8801 18.8224 25.3928 19.5533 25.6955C20.2842 25.9983 21.0884 26.0775 21.8644 25.9231C22.6403 25.7688 23.353 25.3878 23.9124 24.8284C24.4718 24.269 24.8528 23.5563 25.0071 22.7804C25.1615 22.0044 25.0823 21.2002 24.7795 20.4693C24.4768 19.7384 23.9641 19.1136 23.3063 18.6741C22.6485 18.2346 21.8751 18 21.084 18H1C0.734784 18 0.48043 17.8946 0.292893 17.7071C0.105357 17.5196 0 17.2652 0 17Z" fill="#101828"></path>
  </symbol>
  <symbol fill="none" xmlns="http://www.w3.org/2000/svg" viewBox="0 0 20 20" id="LocMap">
     <path fill-rule="evenodd" clip-rule="evenodd" d="M19.7712 0.141029C19.8428 0.199699 19.9005 0.273527 19.94 0.357185C19.9796 0.440842 20.0001 0.53224 20 0.624779V18.1248C19.9999 18.2692 19.9498 18.4092 19.8582 18.5208C19.7666 18.6325 19.6391 18.709 19.4975 18.7373L13.2475 19.9873C13.1666 20.0034 13.0834 20.0034 13.0025 19.9873L6.875 18.7623L0.7475 19.9873C0.656861 20.0054 0.563332 20.0032 0.473651 19.9808C0.38397 19.9584 0.30037 19.9164 0.228874 19.8578C0.157378 19.7993 0.0997667 19.7255 0.0601897 19.642C0.0206127 19.5585 5.58159e-05 19.4672 0 19.3748L0 1.87478C8.72276e-05 1.73035 0.0501951 1.5904 0.141804 1.47874C0.233413 1.36708 0.360869 1.29059 0.5025 1.26228L6.7525 0.0122789C6.83337 -0.00388454 6.91663 -0.00388454 6.9975 0.0122789L13.125 1.23728L19.2525 0.0122789C19.3431 -0.00595135 19.4366 -0.00385945 19.5263 0.0184039C19.616 0.0406672 19.6997 0.0825478 19.7712 0.141029ZM12.5 2.38728L7.5 1.38728V17.6123L12.5 18.6123V2.38728ZM13.75 18.6123L18.75 17.6123V1.38728L13.75 2.38728V18.6123ZM6.25 17.6123V1.38728L1.25 2.38728V18.6123L6.25 17.6123Z" fill="#101828" />
  </symbol>
</svg>